PathFileType	4	(X/Y/Z)	56_2_50_p0_0-476_filt_butterworth.trc
DataRate	CameraRate	NumFrames	NumMarkers	Units	OrigDataRate	OrigDataStartFrame	OrigNumFrames
51.0	51.0	6	27	m	51.0	0	476
Frame#	Time	RHip			RKnee			RAnkle			RBigToe			RSmallToe			RHeel			LHip			LKnee			LAnkle			LBigToe			LSmallToe			LHeel			Neck			Head			Nose			RShoulder			RElbow			RWrist			RThumb			RIndex			RPinky			LShoulder			LElbow			LWrist			LThumb			LIndex			LPinky			
		X1	Y1	Z1	X2	Y2	Z2	X3	Y3	Z3	X4	Y4	Z4	X5	Y5	Z5	X6	Y6	Z6	X7	Y7	Z7	X8	Y8	Z8	X9	Y9	Z9	X10	Y10	Z10	X11	Y11	Z11	X12	Y12	Z12	X13	Y13	Z13	X14	Y14	Z14	X15	Y15	Z15	X16	Y16	Z16	X17	Y17	Z17	X18	Y18	Z18	X19	Y19	Z19	X20	Y20	Z20	X21	Y21	Z21	X22	Y22	Z22	X23	Y23	Z23	X24	Y24	Z24	X25	Y25	Z25	X26	Y26	Z26	X27	Y27	Z27	
0	0.0	0.45558209401596816	0.6853177804937146	0.29260776094238244	0.44615406908695443	0.8131433699260869	0.6694369642365735	0.49754510687541326	1.097552707717392	1.07763647915093	0.40657568437895736	0.8657669894242541	1.1361429968549357	0.47854947109130996	0.9308997273446217	1.158875112590552	0.5099592542185448	1.1698811310768495	1.1156185763688258	0.2577573384170897	0.7717977439408902	0.2797893702029414	0.2980490651459512	0.940786925878411	0.6545760543674427	0.33154055116318737	1.1072778701575767	1.0188231606178155	0.25014203496778453	0.9202537258630545	1.119763100740912	0.22914399169567293	0.9973253449958125	1.1204299538674358	0.3628162701312691	1.1923610175073065	1.0713885505387406	0.3466006365702075	0.5280113982113737	-0.23201450119951522	0.32826865097552926	0.3974297503926818	-0.4508107510726073	0.2887506204162264	0.36448275656532103	-0.3072313844601886	0.4813763722295193	0.4951982959791028	-0.11496108118779991	0.5288432042526102	0.5608693330216237	0.15278427152650106	0.37547664243851564	0.5648682998425685	0.3125569490461225	0.28318411891659867	0.616538510907882	0.36308109857670673	0.28033884957994715	0.6162021208713344	0.37612180452949395	0.3030554822457592	0.5896908720739675	0.41748708582770333	0.18168093977991323	0.5833349850329556	-0.1565123141798333	0.1436325176561825	0.6368592097447914	0.10752383017092787	0.25558253131332526	0.581989505521776	0.2787521415743697	0.31721931408862647	0.5834334568289008	0.3512810750874559	0.32226556210992285	0.5974216063432825	0.3887080539130845	0.2986570978341309	0.5922176861020959	0.38853667886234305
1	0.0196078431372549	0.45621988479871806	0.6833368014632133	0.28972804129790564	0.44688398604847834	0.8118496923214287	0.6666857753389279	0.49684287373918146	1.0968626993533153	1.0774349134370385	0.4097993591204686	0.8759607768704076	1.1389085795848042	0.4782131266138766	0.9242564320850589	1.1572032451099186	0.509156024528105	1.1695228226304013	1.1140897424857608	0.2577349494866412	0.7716793855301685	0.27971142798974835	0.2980054987138958	0.9405505804773396	0.655859832296108	0.3287121535927443	1.1019865643820095	1.0176081002348556	0.25014662700611234	0.9197942257922405	1.1196380596471032	0.23011033410182813	0.9991674908312833	1.12371475189263	0.36179451535168283	1.1772099276585044	1.0717006862616585	0.3465808583301719	0.5281531967541276	-0.2321735013999497	0.3283500442472083	0.3976372850978271	-0.4508621690699296	0.2887308634393576	0.3645680640978054	-0.3073555411500486	0.4784044159037975	0.4948381537394666	-0.1149871718857238	0.5278492040406599	0.5556866445032016	0.15562311982068133	0.3807115122002293	0.5778738623945383	0.31240579549325764	0.28500335415208544	0.627623082580071	0.3636979143566146	0.2866144474445441	0.6257192005215253	0.3797964051597782	0.3046206202767509	0.591322352511849	0.4201963932585728	0.18173594309084634	0.5833981980704359	-0.15653083748829985	0.14538619664816524	0.6371384650050971	0.11019228849046862	0.2585683513496602	0.576915296200089	0.2791055629028924	0.32229649970043706	0.5794642787293284	0.35176645027516423	0.326850188521116	0.592268677207305	0.38947078796271684	0.2983156012436301	0.5909851606115718	0.3907067127813311
2	0.0392156862745098	0.45565642294171044	0.6822631522295083	0.28819935191444906	0.44622169088938446	0.8110040251870769	0.6651267734455881	0.49713395473146016	1.0963907082208009	1.0772946965402852	0.4126916839199915	0.8800635843723599	1.1402112977522778	0.47768785732700547	0.9173070778419969	1.155484965993747	0.5087558470164634	1.1691648294687866	1.1140404276820455	0.25773397888934557	0.7716276194195497	0.27966503844937285	0.29800318334712583	0.9404689798157342	0.6566710375138489	0.32572563121931214	1.0964650420617015	1.0162859651173521	0.25016932966346733	0.9196510420872287	1.1195826629627725	0.23060659109553516	1.0001353328558165	1.1253913865553913	0.36132845011066506	1.169588593064216	1.0708163133118218	0.3465277152671677	0.5282065719937588	-0.23231404522843443	0.3283894513899137	0.3977402276792542	-0.45091101625160507	0.288718622199281	0.3646116444904511	-0.3074343945937288	0.476858078419762	0.49466134621195185	-0.11500559100820247	0.5272950697573111	0.5525060170123164	0.15642861868959396	0.3829173985401482	0.5808729324468552	0.31367350702173474	0.28556626642344074	0.6292098269471316	0.3638367635816302	0.28951959057363313	0.628621000004322	0.38166471047365025	0.3063313210201147	0.5920840158982665	0.42167682252633043	0.18174779817958775	0.5834001319212626	-0.1565406592656223	0.14728284988131266	0.6373457769638329	0.11164472999059766	0.25938121347921855	0.5709427252228807	0.27937614918303577	0.3235129284455418	0.5752132480209592	0.35186616027623735	0.327564326769082	0.586949851368704	0.38905004768419293	0.297984699248803	0.5903855502498564	0.3926382718677487
3	0.0588235294117647	0.454607627985772	0.6820998294041962	0.2879966004440039	0.44510991763330704	0.8111311107044977	0.6647833425255711	0.49918901370307683	1.0974259088011595	1.0775680473719047	0.4143812333542856	0.8793090327265002	1.1402406354927708	0.4771716487742619	0.9125348171804034	1.154340384174328	0.5088127358976352	1.1689229716279395	1.1148599115069076	0.25780560814786413	0.7716757287251115	0.27967360453688483	0.2980020481314158	0.9404245197343234	0.6573410899343933	0.3236322555031168	1.0926045354180078	1.0152909420427605	0.2502288246526191	0.9197940734044108	1.1195941114798256	0.23067439542926102	1.0002853064022714	1.1255654723070787	0.3613731960210299	1.1689549348425494	1.0690517555991694	0.3464563164669614	0.5281747235359106	-0.23233833652898217	0.3283874176632222	0.3977284467099008	-0.45099821493414755	0.2887219119333107	0.3647100478785514	-0.30719056160449437	0.47664868673235417	0.4946484638512674	-0.11501071743065988	0.5271173080651783	0.5501070026153612	0.15499117025435039	0.3817916825347818	0.5742789463061208	0.3153312803463314	0.28512808799050676	0.6245206355693058	0.3640519995504927	0.289390647962986	0.6263252004472689	0.38188362941468634	0.30747985536546024	0.5920042946724131	0.42195998823088576	0.1817270686613435	0.5833544645746224	-0.15654772541221848	0.14850980166485975	0.6372428458413775	0.11155692836651018	0.2585077097996315	0.566514108753458	0.2794679635644133	0.3220805731044085	0.5721771490280385	0.3516275729108087	0.32582005069093944	0.5832797385998725	0.38811257400942833	0.2976555550116715	0.5902837123294661	0.3937322285592185
4	0.0784313725490196	0.45410415764752576	0.6822735478570837	0.2882740873810636	0.4449463737756767	0.8121008841396543	0.6649127081432873	0.5024290038638529	1.1014311606945943	1.0786461715038747	0.41474449130222535	0.8779686369217854	1.1400179432510296	0.4767912345256354	0.9109982761640983	1.1540249291928182	0.5091150815177498	1.1688586941490247	1.1154088758099556	0.2580120428326049	0.7718472188631946	0.2797921616876565	0.29796116648887583	0.9402804946864127	0.6579528320324315	0.32291045313309963	1.091260509276952	1.0149752902635416	0.2503572764252471	0.92004533889115	1.11962933748861	0.2306292609060539	1.0001837274959853	1.1252479991043212	0.3615293188290688	1.1703479577000477	1.0677185141771872	0.3464341786518905	0.5281481241830802	-0.23196727446888216	0.3283728121370783	0.39768833712602825	-0.4510949528811513	0.2887390328993673	0.3650262986504797	-0.3063369813408696	0.4768664771270932	0.49468148356203656	-0.11500534149180912	0.5271234868732264	0.548242855332617	0.15298519263820595	0.37976760026402195	0.5669077525491374	0.3160748546609109	0.2847214201731174	0.6214362037285002	0.36525994361378883	0.2885901831956134	0.6234826714832474	0.38169000195402175	0.3073174727579353	0.5918265451995457	0.42182170221124604	0.18171570467331172	0.5833239441205443	-0.1565673777233584	0.1481797639304266	0.6364541197693931	0.11026612633442623	0.2574286297354456	0.5665370568971012	0.279390284961339	0.3208494025758213	0.5712774528158532	0.3514001712587896	0.32458880962998093	0.5822326803392528	0.38759328267398185	0.29732773696426323	0.5901313048250141	0.3935765011263754
5	0.0980392156862745	0.4541012085380424	0.6823827985574817	0.2884613350637615	0.44565233688370326	0.8130051304251062	0.6650957148341496	0.5050571096841209	1.1071754806384115	1.0801801934578739	0.4146206349595922	0.8776867112965908	1.1400840849174385	0.47657363187689855	0.9110671406098285	1.1540734674247717	0.5094118305572831	1.1689463419410486	1.1155166557792595	0.2582375557403828	0.7720902600102387	0.28003626024225053	0.29790265562241003	0.94011023660551	0.6582246984335449	0.3230357203303345	1.0915213647018438	1.0154899152710775	0.2505280795070752	0.9202615563500186	1.1196654598327105	0.23063103779133254	1.000156743030321	1.1250399502353172	0.3615536368683193	1.1709194553702031	1.0674391826605083	0.3465583040927579	0.5284687926996838	-0.23102588933755985	0.32839451502967554	0.39780359903818824	-0.4509269151919004	0.28875532698488915	0.36550882765070775	-0.3051709063690548	0.47699293368923396	0.4947067445499699	-0.11500762513374968	0.5266111034192389	0.5478184834830004	0.1518391349730684	0.3784733545453833	0.5642343450111047	0.31606579818491504	0.2847625648119279	0.6203173963562425	0.3671291859952844	0.2882750582175869	0.6214253497154681	0.3817454908975692	0.3058310933628286	0.5920073002992909	0.42175519046542176	0.1817284209353454	0.5833448573553793	-0.1566098962999693	0.14628868604196185	0.6351053232028264	0.108549425477546	0.2568393986799727	0.5712400409805343	0.27931159586941784	0.32053210697458023	0.571654424567265	0.3514910448665338	0.3244277585919841	0.5826459517184235	0.3874395983004527	0.2970316507294611	0.58973241583946	0.39279779094698497
